<svg width="25" height="19" viewBox="0 0 25 19" fill="none" xmlns="http://www.w3.org/2000/svg">
<path d="M16.291 0.888672V8.61328H16.7285C18.8522 8.61328 20.0189 7.5332 20.2285 5.37305H21.2402V12.9336H20.3516C20.2878 12.0039 19.9915 11.2018 19.4629 10.5273C18.9434 9.85286 18.0319 9.51562 16.7285 9.51562H16.291V17.4316H18.916V18.334H9.48242V17.4316H11.8066V0.888672H9.48242V0H24.8496L25 5.5918H24.043C23.4049 2.45638 21.7826 0.888672 19.1758 0.888672H16.291Z" fill="#171717"/>
<path d="M11.8262 8.98242V17.4316H9.43359V18.334H18.6211V17.4316H16.2969V0.888672H18.6211V0H9.43359C6.48958 0 4.47982 0.451172 3.4043 1.35352C2.32878 2.25586 1.79102 3.22201 1.79102 4.25195C1.79102 5.3457 2.2832 6.27995 3.26758 7.05469C4.25195 7.82943 5.72852 8.33984 7.69727 8.58594V8.64062C6.21159 9.01432 5.10417 9.51107 4.375 10.1309C3.63672 10.7415 3.17643 11.4206 2.99414 12.168C2.80273 12.9154 2.70247 13.8086 2.69336 14.8477C2.67513 15.8776 2.58854 16.5156 2.43359 16.7617C2.26953 17.0078 1.97331 17.1309 1.54492 17.1309C1.07096 17.1309 0.55599 16.9805 0 16.6797V17.7188C0.893229 18.1836 1.88216 18.416 2.9668 18.416C4.38867 18.416 5.52799 18.0605 6.38477 17.3496C7.24154 16.6387 7.70182 15.349 7.76562 13.4805C7.82031 11.612 8.06185 10.3952 8.49023 9.83008C8.91862 9.26497 9.70247 8.98242 10.8418 8.98242H11.8262ZM11.8262 0.888672V8.08008H10.0898C8.88672 8.08008 8.05273 7.86133 7.58789 7.42383C7.12305 6.97721 6.89062 5.96549 6.89062 4.38867C6.89062 2.87565 7.10938 1.91406 7.54688 1.50391C7.98438 1.09375 8.74544 0.888672 9.83008 0.888672H11.8262Z" fill="#171717"/>
</svg>
