<svg width="97" height="40" viewBox="0 0 97 40" fill="none" xmlns="http://www.w3.org/2000/svg">
<path d="M6.23438 10.9844V18.2266H8.28516V19H0.410156V18.2266H2.40234V4.04688H0.410156V3.28516H8.28516C10.8086 3.28516 12.5312 3.67188 13.4531 4.44531C14.375 5.21875 14.8359 6.04688 14.8359 6.92969C14.8359 7.86719 14.4141 8.66797 13.5703 9.33203C12.7266 9.99609 11.4609 10.4336 9.77344 10.6445V10.6914C11.0469 11.0117 11.9961 11.4375 12.6211 11.9688C13.2539 12.4922 13.6484 13.0742 13.8047 13.7148C13.9688 14.3555 14.0547 15.1211 14.0625 16.0117C14.0781 16.8945 14.1523 17.4414 14.2852 17.6523C14.4258 17.8633 14.6797 17.9688 15.0469 17.9688C15.4531 17.9688 15.8945 17.8398 16.3711 17.582V18.4727C15.6055 18.8711 14.7578 19.0703 13.8281 19.0703C12.6094 19.0703 11.6328 18.7656 10.8984 18.1562C10.1641 17.5469 9.76953 16.4414 9.71484 14.8398C9.66797 13.2383 9.46094 12.1953 9.09375 11.7109C8.72656 11.2266 8.05469 10.9844 7.07812 10.9844H6.23438ZM6.23438 4.04688V10.2109H7.72266C8.75391 10.2109 9.46875 10.0234 9.86719 9.64844C10.2656 9.26562 10.4648 8.39844 10.4648 7.04688C10.4648 5.75 10.2773 4.92578 9.90234 4.57422C9.52734 4.22266 8.875 4.04688 7.94531 4.04688H6.23438ZM26.2266 13.7383H20.4609V15.2617C20.4609 16.457 20.5664 17.2852 20.7773 17.7461C20.9961 18.1992 21.4922 18.4258 22.2656 18.4258C22.9453 18.4258 23.5781 18.207 24.1641 17.7695C24.7578 17.332 25.2109 16.6523 25.5234 15.7305H26.2266C25.9375 16.918 25.4023 17.8086 24.6211 18.4023C23.8398 18.9961 22.9023 19.293 21.8086 19.293C20.3164 19.293 19.1211 18.7812 18.2227 17.7578C17.332 16.7344 16.8867 15.5547 16.8867 14.2188C16.8867 12.9375 17.3398 11.7969 18.2461 10.7969C19.1523 9.78906 20.2852 9.28516 21.6445 9.28516C22.8164 9.28516 23.8359 9.65234 24.7031 10.3867C25.5703 11.1211 26.0781 12.2383 26.2266 13.7383ZM20.4609 12.9766H22.9805V11.9922C22.9805 11.1406 22.8633 10.5898 22.6289 10.3398C22.4023 10.082 22.0898 9.95312 21.6914 9.95312C21.3164 9.95312 21.0156 10.0664 20.7891 10.293C20.5703 10.5195 20.4609 11.0938 20.4609 12.0156V12.9766ZM33.1289 13.6211V11.5117C33.1289 10.9414 33.0586 10.5391 32.918 10.3047C32.7773 10.0703 32.418 9.95312 31.8398 9.95312C31.3789 9.95312 31.0195 10.0234 30.7617 10.1641C30.5039 10.2969 30.375 10.4336 30.375 10.5742C30.375 10.668 30.4648 10.8086 30.6445 10.9961C30.832 11.1836 30.9258 11.418 30.9258 11.6992C30.9258 12.1055 30.7734 12.457 30.4688 12.7539C30.1641 13.043 29.7812 13.1875 29.3203 13.1875C28.8984 13.1875 28.5352 13.0508 28.2305 12.7773C27.9258 12.4961 27.7734 12.1562 27.7734 11.7578C27.7734 11.0703 28.1797 10.4883 28.9922 10.0117C29.8125 9.52734 30.9453 9.28516 32.3906 9.28516C33.5078 9.28516 34.4414 9.42578 35.1914 9.70703C35.9492 9.98828 36.3281 10.6211 36.3281 11.6055V16.5508C36.3281 17.4023 36.5664 17.8281 37.043 17.8281C37.1758 17.8281 37.3594 17.7539 37.5938 17.6055L37.9102 18.1328C37.2461 18.9062 36.4766 19.293 35.6016 19.293C34.6875 19.293 33.9219 18.8203 33.3047 17.875C32.2812 18.8203 31.1445 19.293 29.8945 19.293C29.0508 19.293 28.3867 19.0742 27.9023 18.6367C27.418 18.1914 27.1758 17.6406 27.1758 16.9844C27.1758 14.8984 29.1602 13.7773 33.1289 13.6211ZM33.1289 15.7656V14.2422C32.0742 14.2812 31.3398 14.4492 30.9258 14.7461C30.5117 15.0352 30.3047 15.5234 30.3047 16.2109C30.3047 16.7422 30.4336 17.1602 30.6914 17.4648C30.9492 17.7695 31.2812 17.9219 31.6875 17.9219C32.1484 17.9219 32.5039 17.7695 32.7539 17.4648C33.0039 17.1602 33.1289 16.5938 33.1289 15.7656ZM43.1719 3.0625V18.2852H44.1562V19H38.918V18.2852H39.9727V4H38.918V3.28516C39.9023 3.28516 40.875 3.24609 41.8359 3.16797L42.7852 3.0625H43.1719ZM51.1523 4.04688V10.668H51.5273C53.3477 10.668 54.3477 9.74219 54.5273 7.89062H55.3945V14.3711H54.6328C54.5781 13.5742 54.3242 12.8867 53.8711 12.3086C53.4258 11.7305 52.6445 11.4414 51.5273 11.4414H51.1523V18.2266H53.4023V19H45.3164V18.2266H47.3086V4.04688H45.3164V3.28516H58.4883L58.6172 8.07812H57.7969C57.25 5.39063 55.8594 4.04688 53.625 4.04688H51.1523ZM63.8438 19.293C62.2734 19.293 61.0195 18.793 60.082 17.793C59.1445 16.793 58.6758 15.6289 58.6758 14.3008C58.6758 12.957 59.1523 11.7852 60.1055 10.7852C61.0586 9.78516 62.3047 9.28516 63.8438 9.28516C65.3984 9.28516 66.6523 9.78125 67.6055 10.7734C68.5664 11.7578 69.0469 12.9336 69.0469 14.3008C69.0469 15.6602 68.5703 16.832 67.6172 17.8164C66.6719 18.8008 65.4141 19.293 63.8438 19.293ZM63.8438 9.88281C63.4297 9.88281 63.0977 9.98438 62.8477 10.1875C62.5977 10.3828 62.4453 10.6875 62.3906 11.1016C62.3359 11.5078 62.3086 12.5742 62.3086 14.3008C62.3086 15.9805 62.332 17.0117 62.3789 17.3945C62.4336 17.7773 62.5898 18.0898 62.8477 18.332C63.1133 18.5664 63.4688 18.6836 63.9141 18.6836C64.2734 18.6836 64.5859 18.582 64.8516 18.3789C65.125 18.168 65.2891 17.793 65.3438 17.2539C65.3984 16.707 65.4258 15.7852 65.4258 14.4883C65.4258 12.4648 65.3477 11.1914 65.1914 10.668C65.0352 10.1445 64.5859 9.88281 63.8438 9.88281ZM75.6094 19.293C74.0391 19.293 72.7852 18.793 71.8477 17.793C70.9102 16.793 70.4414 15.6289 70.4414 14.3008C70.4414 12.957 70.918 11.7852 71.8711 10.7852C72.8242 9.78516 74.0703 9.28516 75.6094 9.28516C77.1641 9.28516 78.418 9.78125 79.3711 10.7734C80.332 11.7578 80.8125 12.9336 80.8125 14.3008C80.8125 15.6602 80.3359 16.832 79.3828 17.8164C78.4375 18.8008 77.1797 19.293 75.6094 19.293ZM75.6094 9.88281C75.1953 9.88281 74.8633 9.98438 74.6133 10.1875C74.3633 10.3828 74.2109 10.6875 74.1562 11.1016C74.1016 11.5078 74.0742 12.5742 74.0742 14.3008C74.0742 15.9805 74.0977 17.0117 74.1445 17.3945C74.1992 17.7773 74.3555 18.0898 74.6133 18.332C74.8789 18.5664 75.2344 18.6836 75.6797 18.6836C76.0391 18.6836 76.3516 18.582 76.6172 18.3789C76.8906 18.168 77.0547 17.793 77.1094 17.2539C77.1641 16.707 77.1914 15.7852 77.1914 14.4883C77.1914 12.4648 77.1133 11.1914 76.957 10.668C76.8008 10.1445 76.3516 9.88281 75.6094 9.88281ZM91.5234 3.0625V18.3086H92.8008V19H91.3359C90.8594 19 90.4141 19.0117 90 19.0352L88.6641 19.1406H88.3359V17.7227H88.2891C87.7891 18.7695 87.0117 19.293 85.957 19.293C84.9336 19.293 84.0352 18.8008 83.2617 17.8164C82.4961 16.8242 82.1133 15.6016 82.1133 14.1484C82.1133 12.75 82.5039 11.5898 83.2852 10.668C84.0664 9.74609 84.9727 9.28516 86.0039 9.28516C86.8789 9.28516 87.6562 9.68359 88.3359 10.4805V4H86.4375V3.28516H88.1133C88.4961 3.28516 89.1367 3.25 90.0352 3.17969C90.9336 3.10156 91.4297 3.0625 91.5234 3.0625ZM88.3359 15.3555V12.8359C88.3359 11.8594 88.1523 11.1367 87.7852 10.668C87.4258 10.1914 87.0547 9.95312 86.6719 9.95312C86.375 9.95312 86.1445 10.1211 85.9805 10.457C85.8164 10.793 85.7344 11.4727 85.7344 12.4961V16.0234C85.7344 17 85.793 17.6562 85.9102 17.9922C86.0352 18.3281 86.2578 18.4961 86.5781 18.4961C86.9141 18.4961 87.2891 18.2773 87.7031 17.8398C88.125 17.4023 88.3359 16.5742 88.3359 15.3555Z" fill="#171717"/>
<mask id="mask0_10_404" style="mask-type:alpha" maskUnits="userSpaceOnUse" x="4" y="15" width="93" height="24">
<path d="M4 39H97V21.5H51.0672V15H47.8788V21.5H13.5V18.5H4V39Z" fill="#D9D9D9"/>
</mask>
<g mask="url(#mask0_10_404)">
<path d="M84.9297 37.5273L84.8359 33.1328L85.5977 33.1328C86.3086 35.8203 87.5977 37.1641 89.4648 37.1641C90.3164 37.1641 90.9258 36.793 91.293 36.0508C91.6602 35.3086 91.8437 33.8008 91.8437 31.5273C91.8437 27.3008 91.7109 24.7578 91.4453 23.8984C91.1797 23.0469 90.5742 22.6211 89.6289 22.6211C87.6914 22.6211 86.2695 24.0078 85.3633 26.7813L84.5898 26.7813L84.8359 21.9297L85.5977 21.9297C85.832 22.25 86.1211 22.6094 86.4648 23.0078C87.4883 22.1953 88.6328 21.7891 89.8984 21.7891C91.5391 21.7891 93 22.4961 94.2812 23.9102C95.5625 25.3242 96.2031 27.2617 96.2031 29.7227C96.2031 32.1602 95.5664 34.1367 94.293 35.6523C93.0117 37.1758 91.4258 37.9375 89.5352 37.9375C88.4102 37.9375 87.3867 37.5547 86.4648 36.7891C86.1211 37.0391 85.832 37.2852 85.5977 37.5273L84.9297 37.5273ZM78.1328 21.707C79.7031 21.707 80.957 22.207 81.8945 23.207C82.832 24.207 83.3008 25.3711 83.3008 26.6992C83.3008 28.043 82.8242 29.2148 81.8711 30.2148C80.918 31.2148 79.6719 31.7148 78.1328 31.7148C76.5781 31.7148 75.3242 31.2188 74.3711 30.2266C73.4102 29.2422 72.9297 28.0664 72.9297 26.6992C72.9297 25.3398 73.4062 24.168 74.3594 23.1836C75.3047 22.1992 76.5625 21.707 78.1328 21.707ZM78.1328 31.1172C78.5469 31.1172 78.8789 31.0156 79.1289 30.8125C79.3789 30.6172 79.5312 30.3125 79.5859 29.8984C79.6406 29.4922 79.668 28.4258 79.668 26.6992C79.668 25.0195 79.6445 23.9883 79.5977 23.6055C79.543 23.2227 79.3867 22.9102 79.1289 22.668C78.8633 22.4336 78.5078 22.3164 78.0625 22.3164C77.7031 22.3164 77.3906 22.418 77.125 22.6211C76.8516 22.832 76.6875 23.207 76.6328 23.7461C76.5781 24.293 76.5508 25.2148 76.5508 26.5117C76.5508 28.5352 76.6289 29.8086 76.7852 30.332C76.9414 30.8555 77.3906 31.1172 78.1328 31.1172ZM67.4219 31.7148L67.4219 29.6992L67.375 29.6992C66.625 31.043 65.4258 31.7148 63.7773 31.7148C62.0508 31.7148 61.0898 31.0039 60.8945 29.582C60.0352 31.0039 58.8906 31.7148 57.4609 31.7148C56.5234 31.7148 55.8281 31.582 55.375 31.3164C54.9141 31.0586 54.625 30.7305 54.5078 30.332C54.3828 29.9414 54.3203 29.4375 54.3203 28.8203L54.3203 22.7148L52.9844 22.7148L52.9844 22L58.8789 22L58.8789 22.7148L57.5195 22.7148L57.5195 29.0781C57.5195 29.8359 57.5977 30.3008 57.7539 30.4727C57.9102 30.6445 58.125 30.7305 58.3984 30.7305C58.8672 30.7305 59.3359 30.5234 59.8047 30.1094C60.2734 29.6953 60.5703 29.2422 60.6953 28.75C60.8125 28.2656 60.8711 27.5898 60.8711 26.7227L60.8711 22.7148L59.5117 22.7148L59.5117 22L65.4297 22L65.4297 22.7148L64.0703 22.7148L64.0703 29.0078C64.0703 29.7578 64.1523 30.2266 64.3164 30.4141C64.4805 30.6094 64.7109 30.707 65.0078 30.707C65.5547 30.707 66.0937 30.4609 66.625 29.9688C67.1562 29.4766 67.4219 28.5391 67.4219 27.1563L67.4219 22.7148L66.0625 22.7148L66.0625 22L71.957 22L71.957 22.7148L70.6211 22.7148L70.6211 30.707L71.957 30.707L71.957 31.4336L70.3047 31.4336C69.7187 31.4336 69.1562 31.4805 68.6172 31.5742L67.8789 31.7148L67.4219 31.7148ZM47.875 31.7148L47.875 30.2266L47.8281 30.2266C47.3047 31.2188 46.5234 31.7148 45.4844 31.7148C44.4922 31.7148 43.6016 31.2227 42.8125 30.2383C42.0156 29.2617 41.6172 28.0742 41.6172 26.6758C41.6172 25.2695 41.9805 24.0898 42.707 23.1367C43.4336 22.1836 44.3242 21.707 45.3789 21.707C46.3555 21.707 47.1875 22.1406 47.875 23.0078L47.875 16.5508L46.3867 16.5508L46.3867 15.8359L52.3633 15.8359L52.3633 16.5508L51.0742 16.5508L51.0742 30.707L52.3633 30.707L52.3633 31.4336L51.8594 31.4336C51.7187 31.4336 51.457 31.4375 51.0742 31.4453C50.6914 31.4609 50.2539 31.4961 49.7617 31.5508L48.2148 31.7148L47.875 31.7148ZM47.875 28.0469L47.875 25.4805C47.875 24.4961 47.6875 23.7383 47.3125 23.207C46.9375 22.6758 46.5273 22.4102 46.082 22.4102C45.832 22.4102 45.6289 22.5391 45.4727 22.7969C45.3164 23.0625 45.2383 23.8125 45.2383 25.0469L45.2383 28C45.2383 29.25 45.3125 30.0547 45.4609 30.4141C45.6094 30.7734 45.8242 30.9531 46.1055 30.9531C46.668 30.9531 47.1055 30.6797 47.418 30.1328C47.7227 29.5859 47.875 28.8906 47.875 28.0469ZM34.3398 27.3789L34.3398 29.4883C34.3398 30.0586 34.4102 30.4609 34.5508 30.6953C34.6914 30.9297 35.0508 31.0469 35.6289 31.0469C36.0898 31.0469 36.4492 30.9766 36.707 30.8359C36.9648 30.7031 37.0937 30.5664 37.0937 30.4258C37.0937 30.332 37.0039 30.1914 36.8242 30.0039C36.6367 29.8164 36.543 29.582 36.543 29.3008C36.543 28.8945 36.6953 28.543 37 28.2461C37.3047 27.957 37.6875 27.8125 38.1484 27.8125C38.5703 27.8125 38.9336 27.9492 39.2383 28.2227C39.543 28.5039 39.6953 28.8438 39.6953 29.2422C39.6953 29.9297 39.2891 30.5117 38.4766 30.9883C37.6562 31.4727 36.5234 31.7148 35.0781 31.7148C33.9609 31.7148 33.0273 31.5742 32.2773 31.293C31.5195 31.0117 31.1406 30.3789 31.1406 29.3945L31.1406 24.4492C31.1406 23.5977 30.9023 23.1719 30.4258 23.1719C30.293 23.1719 30.1094 23.2461 29.875 23.3945L29.5586 22.8672C30.2227 22.0938 30.9922 21.707 31.8672 21.707C32.7812 21.707 33.5469 22.1797 34.1641 23.125C35.1875 22.1797 36.3242 21.707 37.5742 21.707C38.418 21.707 39.082 21.9258 39.5664 22.3633C40.0508 22.8086 40.293 23.3594 40.293 24.0156C40.293 26.1016 38.3086 27.2227 34.3398 27.3789ZM34.3398 25.2344L34.3398 26.7578C35.3945 26.7188 36.1289 26.5508 36.543 26.2539C36.957 25.9648 37.1641 25.4766 37.1641 24.7891C37.1641 24.2578 37.0352 23.8398 36.7773 23.5352C36.5195 23.2305 36.1875 23.0781 35.7812 23.0781C35.3203 23.0781 34.9648 23.2305 34.7148 23.5352C34.4648 23.8398 34.3398 24.4063 34.3398 25.2344ZM24.25 31.7149L24.25 29.7227L24.2031 29.7227C23.375 31.0508 22.2148 31.7149 20.7227 31.7149C20.0586 31.7149 19.4766 31.5742 18.9766 31.293C18.4766 31.0117 18.1602 30.7227 18.0273 30.4258C17.8867 30.1367 17.8164 29.6953 17.8164 29.1016L17.8164 22.7149L16.4805 22.7149L16.4805 22L22.375 22L22.375 22.7149L21.0156 22.7149L21.0156 29.2774C21.0156 29.8711 21.0977 30.2578 21.2617 30.4375C21.418 30.6172 21.6406 30.707 21.9297 30.707C22.3203 30.707 22.8047 30.4609 23.3828 29.9688C23.9609 29.4766 24.25 28.6133 24.25 27.3789L24.25 22.7149L22.8789 22.7149L22.8789 22L28.8086 22L28.8086 22.7148L27.4492 22.7148L27.4492 30.707L28.7852 30.707L28.7852 31.4336L27.9297 31.4336C27.1562 31.4336 26.3906 31.4805 25.6328 31.5742L24.5898 31.7149L24.25 31.7149ZM16.2461 31.4336L10.3984 31.4336L10.3984 30.707L11.8047 30.707L9.35547 25.6914L7.79687 29.3477C7.60937 29.8242 7.51562 30.1367 7.51562 30.2852C7.51562 30.5664 7.83594 30.707 8.47656 30.707L8.91016 30.707L8.91016 31.4336L5.25391 31.4336L5.25391 30.707C5.76172 30.707 6.10156 30.6445 6.27344 30.5195C6.44531 30.4024 6.63281 30.1055 6.83594 29.6289L11.8516 18.0391C11.8516 17.8359 12.0742 17.4219 12.5195 16.7969C12.957 16.1719 13.6094 15.8594 14.4766 15.8594C14.9687 15.8594 15.3789 16.0078 15.707 16.3047C16.0352 16.5938 16.1992 16.9336 16.1992 17.3242C16.1992 17.707 16.0664 18.043 15.8008 18.332C15.5352 18.6211 15.2187 18.7656 14.8516 18.7656C14.3203 18.7656 13.8828 18.4609 13.5391 17.8516C13.4375 17.6719 13.332 17.582 13.2227 17.582C12.957 17.582 12.6602 17.9766 12.332 18.7656L10.9961 22L15.3086 30.707L16.2461 30.707L16.2461 31.4336Z" fill="#171717"/>
</g>
</svg>
